<svg xmlns="http://www.w3.org/2000/svg" viewBox="0 0 660 300" width="660" height="300"><rect x="10" y="23.3" width="546.0" height="71.7" fill="#17a866" opacity=".16"></rect><rect x="10" y="95.0" width="546.0" height="35.8" fill="#e05252" opacity=".07"></rect><line x1="20.5" y1="273.1" x2="20.5" y2="282.3" stroke="#e05252" stroke-width="1.1" opacity=".8"></line><rect x="14.6" y="274.3" width="11.8" height="7.6" rx="0.8" fill="#0c1a24" stroke="#e05252" stroke-width="1.1"></rect><line x1="41.5" y1="274.9" x2="41.5" y2="285.1" stroke="#17a866" stroke-width="1.1" opacity=".8"></line><rect x="35.6" y="276.8" width="11.8" height="5.1" rx="0.8" fill="#17a866" stroke="#17a866" stroke-width="1.1"></rect><line x1="62.5" y1="266.0" x2="62.5" y2="280.0" stroke="#17a866" stroke-width="1.1" opacity=".8"></line><rect x="56.6" y="270.7" width="11.8" height="6.1" rx="0.8" fill="#17a866" stroke="#17a866" stroke-width="1.1"></rect><line x1="83.5" y1="270.7" x2="83.5" y2="276.3" stroke="#e05252" stroke-width="1.1" opacity=".8"></line><rect x="77.6" y="270.7" width="11.8" height="3.2" rx="0.8" fill="#0c1a24" stroke="#e05252" stroke-width="1.1"></rect><line x1="104.5" y1="269.6" x2="104.5" y2="276.8" stroke="#17a866" stroke-width="1.1" opacity=".8"></line><rect x="98.6" y="271.6" width="11.8" height="2.3" rx="0.8" fill="#17a866" stroke="#17a866" stroke-width="1.1"></rect><line x1="125.5" y1="263.0" x2="125.5" y2="274.0" stroke="#17a866" stroke-width="1.1" opacity=".8"></line><rect x="119.6" y="266.7" width="11.8" height="4.9" rx="0.8" fill="#17a866" stroke="#17a866" stroke-width="1.1"></rect><line x1="146.5" y1="256.5" x2="146.5" y2="269.3" stroke="#17a866" stroke-width="1.1" opacity=".8"></line><rect x="140.6" y="260.4" width="11.8" height="6.3" rx="0.8" fill="#17a866" stroke="#17a866" stroke-width="1.1"></rect><line x1="167.5" y1="257.6" x2="167.5" y2="262.1" stroke="#e05252" stroke-width="1.1" opacity=".8"></line><rect x="161.6" y="260.4" width="11.8" height="1.4" rx="0.8" fill="#0c1a24" stroke="#e05252" stroke-width="1.1"></rect><line x1="188.5" y1="259.3" x2="188.5" y2="263.2" stroke="#17a866" stroke-width="1.1" opacity=".8"></line><rect x="182.6" y="260.2" width="11.8" height="1.4" rx="0.8" fill="#17a866" stroke="#17a866" stroke-width="1.1"></rect><line x1="209.5" y1="258.1" x2="209.5" y2="264.0" stroke="#17a866" stroke-width="1.1" opacity=".8"></line><rect x="203.6" y="258.4" width="11.8" height="1.7" rx="0.8" fill="#17a866" stroke="#17a866" stroke-width="1.1"></rect><line x1="230.5" y1="252.5" x2="230.5" y2="262.6" stroke="#17a866" stroke-width="1.1" opacity=".8"></line><rect x="224.6" y="255.0" width="11.8" height="3.5" rx="0.8" fill="#17a866" stroke="#17a866" stroke-width="1.1"></rect><line x1="251.5" y1="245.8" x2="251.5" y2="257.4" stroke="#17a866" stroke-width="1.1" opacity=".8"></line><rect x="245.6" y="247.0" width="11.8" height="8.0" rx="0.8" fill="#17a866" stroke="#17a866" stroke-width="1.1"></rect><line x1="272.5" y1="235.1" x2="272.5" y2="247.1" stroke="#17a866" stroke-width="1.1" opacity=".8"></line><rect x="266.6" y="239.7" width="11.8" height="7.3" rx="0.8" fill="#17a866" stroke="#17a866" stroke-width="1.1"></rect><line x1="293.5" y1="225.2" x2="293.5" y2="241.5" stroke="#17a866" stroke-width="1.1" opacity=".8"></line><rect x="287.6" y="225.6" width="11.8" height="14.0" rx="0.8" fill="#17a866" stroke="#17a866" stroke-width="1.1"></rect><line x1="314.5" y1="210.1" x2="314.5" y2="230.2" stroke="#17a866" stroke-width="1.1" opacity=".8"></line><rect x="308.6" y="211.5" width="11.8" height="14.1" rx="0.8" fill="#17a866" stroke="#17a866" stroke-width="1.1"></rect><line x1="335.5" y1="202.6" x2="335.5" y2="216.1" stroke="#17a866" stroke-width="1.1" opacity=".8"></line><rect x="329.6" y="206.1" width="11.8" height="5.5" rx="0.8" fill="#17a866" stroke="#17a866" stroke-width="1.1"></rect><line x1="356.5" y1="190.6" x2="356.5" y2="211.1" stroke="#17a866" stroke-width="1.1" opacity=".8"></line><rect x="350.6" y="191.5" width="11.8" height="14.6" rx="0.8" fill="#17a866" stroke="#17a866" stroke-width="1.1"></rect><line x1="377.5" y1="185.4" x2="377.5" y2="195.7" stroke="#17a866" stroke-width="1.1" opacity=".8"></line><rect x="371.6" y="185.5" width="11.8" height="5.9" rx="0.8" fill="#17a866" stroke="#17a866" stroke-width="1.1"></rect><line x1="398.5" y1="172.5" x2="398.5" y2="190.8" stroke="#17a866" stroke-width="1.1" opacity=".8"></line><rect x="392.6" y="176.5" width="11.8" height="9.1" rx="0.8" fill="#17a866" stroke="#17a866" stroke-width="1.1"></rect><line x1="419.5" y1="167.4" x2="419.5" y2="181.9" stroke="#17a866" stroke-width="1.1" opacity=".8"></line><rect x="413.6" y="167.7" width="11.8" height="8.7" rx="0.8" fill="#17a866" stroke="#17a866" stroke-width="1.1"></rect><line x1="440.5" y1="146.9" x2="440.5" y2="170.7" stroke="#17a866" stroke-width="1.1" opacity=".8"></line><rect x="434.6" y="152.5" width="11.8" height="15.3" rx="0.8" fill="#17a866" stroke="#17a866" stroke-width="1.1"></rect><line x1="461.5" y1="137.9" x2="461.5" y2="157.4" stroke="#17a866" stroke-width="1.1" opacity=".8"></line><rect x="455.6" y="144.0" width="11.8" height="8.5" rx="0.8" fill="#17a866" stroke="#17a866" stroke-width="1.1"></rect><line x1="482.5" y1="131.2" x2="482.5" y2="149.2" stroke="#17a866" stroke-width="1.1" opacity=".8"></line><rect x="476.6" y="136.6" width="11.8" height="7.4" rx="0.8" fill="#17a866" stroke="#17a866" stroke-width="1.1"></rect><line x1="503.5" y1="116.6" x2="503.5" y2="142.5" stroke="#17a866" stroke-width="1.1" opacity=".8"></line><rect x="497.6" y="122.6" width="11.8" height="14.0" rx="0.8" fill="#17a866" stroke="#17a866" stroke-width="1.1"></rect><line x1="524.5" y1="104.0" x2="524.5" y2="127.1" stroke="#17a866" stroke-width="1.1" opacity=".8"></line><rect x="518.6" y="109.9" width="11.8" height="12.6" rx="0.8" fill="#17a866" stroke="#17a866" stroke-width="1.1"></rect><line x1="545.5" y1="88.6" x2="545.5" y2="116.6" stroke="#17a866" stroke-width="1.1" opacity=".8"></line><rect x="539.6" y="95.0" width="11.8" height="14.9" rx="0.8" fill="#17a866" stroke="#17a866" stroke-width="1.1"></rect><polyline points="20.5,282.5 41.5,282.5 62.5,282.5 83.5,282.5 104.5,282.5 125.5,282.5 146.5,282.5 167.5,281.7 188.5,279.7 209.5,277.2 230.5,273.8 251.5,266.3 272.5,259.5 293.5,246.7 314.5,234.5 335.5,229.4 356.5,216.6 377.5,210.2 398.5,202.3 419.5,193.9 440.5,180.8 461.5,173.4 482.5,166.6 503.5,154.8 524.5,143.5 545.5,130.9" fill="none" stroke="#e05252" stroke-width="2.2" stroke-linejoin="round"></polyline><circle cx="20.5" cy="276.4" r="2" fill="#30AFFF"></circle><circle cx="41.5" cy="276.4" r="2" fill="#30AFFF"></circle><circle cx="62.5" cy="276.4" r="2" fill="#30AFFF"></circle><circle cx="83.5" cy="276.4" r="2" fill="#30AFFF"></circle><circle cx="104.5" cy="276.4" r="2" fill="#30AFFF"></circle><circle cx="125.5" cy="271.7" r="2" fill="#30AFFF"></circle><circle cx="146.5" cy="265.6" r="2" fill="#30AFFF"></circle><circle cx="167.5" cy="265.6" r="2" fill="#30AFFF"></circle><circle cx="188.5" cy="264.3" r="2" fill="#30AFFF"></circle><circle cx="209.5" cy="262.3" r="2" fill="#30AFFF"></circle><circle cx="230.5" cy="259.1" r="2" fill="#30AFFF"></circle><circle cx="251.5" cy="251.4" r="2" fill="#30AFFF"></circle><circle cx="272.5" cy="244.4" r="2" fill="#30AFFF"></circle><circle cx="293.5" cy="231.1" r="2" fill="#30AFFF"></circle><circle cx="314.5" cy="217.9" r="2" fill="#30AFFF"></circle><circle cx="335.5" cy="212.5" r="2" fill="#30AFFF"></circle><circle cx="356.5" cy="198.7" r="2" fill="#30AFFF"></circle><circle cx="377.5" cy="192.3" r="2" fill="#30AFFF"></circle><circle cx="398.5" cy="183.7" r="2" fill="#30AFFF"></circle><circle cx="419.5" cy="175.0" r="2" fill="#30AFFF"></circle><circle cx="440.5" cy="160.6" r="2" fill="#30AFFF"></circle><circle cx="461.5" cy="152.5" r="2" fill="#30AFFF"></circle><circle cx="482.5" cy="145.2" r="2" fill="#30AFFF"></circle><circle cx="503.5" cy="132.0" r="2" fill="#30AFFF"></circle><circle cx="524.5" cy="119.8" r="2" fill="#30AFFF"></circle><circle cx="545.5" cy="105.7" r="2" fill="#30AFFF"></circle><line x1="10" y1="23.3" x2="556.0" y2="23.3" stroke="#128a52" stroke-width="1.3" stroke-dasharray="5 4"></line><text x="566" y="27.3" font-family="IBM Plex Mono, ui-monospace, monospace" font-size="11" font-weight="500" fill="#128a52">TP 3,092.80</text><line x1="10" y1="95.0" x2="556.0" y2="95.0" stroke="#0a1621" stroke-width="1.3" stroke-dasharray="0"></line><text x="566" y="99.0" font-family="IBM Plex Mono, ui-monospace, monospace" font-size="11" font-weight="500" fill="#0a1621">Entry 2,800.00</text><line x1="10" y1="130.9" x2="556.0" y2="130.9" stroke="#c94040" stroke-width="1.3" stroke-dasharray="5 4"></line><text x="566" y="134.9" font-family="IBM Plex Mono, ui-monospace, monospace" font-size="11" font-weight="500" fill="#c94040">SL 2,653.60</text></svg>