<svg xmlns="http://www.w3.org/2000/svg" viewBox="0 0 340 150" width="340" height="150"><line x1="10.3" y1="124.1" x2="10.3" y2="128.4" stroke="#e05252" stroke-width=".9" opacity=".75"></line><rect x="9.0" y="124.7" width="2.5" height="1.7" fill="#0c1a24" stroke="#e05252" stroke-width=".9"></rect><line x1="14.8" y1="120.0" x2="14.8" y2="130.8" stroke="#17a866" stroke-width=".9" opacity=".75"></line><rect x="13.5" y="124.7" width="2.5" height="1.8" fill="#17a866" stroke="#17a866" stroke-width=".9"></rect><line x1="19.3" y1="117.1" x2="19.3" y2="126.5" stroke="#17a866" stroke-width=".9" opacity=".75"></line><rect x="18.0" y="119.2" width="2.5" height="5.5" fill="#17a866" stroke="#17a866" stroke-width=".9"></rect><line x1="23.8" y1="112.7" x2="23.8" y2="119.8" stroke="#17a866" stroke-width=".9" opacity=".75"></line><rect x="22.5" y="112.7" width="2.5" height="6.4" fill="#17a866" stroke="#17a866" stroke-width=".9"></rect><line x1="28.3" y1="106.4" x2="28.3" y2="115.5" stroke="#17a866" stroke-width=".9" opacity=".75"></line><rect x="27.0" y="109.7" width="2.5" height="3.0" fill="#17a866" stroke="#17a866" stroke-width=".9"></rect><line x1="32.8" y1="101.3" x2="32.8" y2="111.7" stroke="#17a866" stroke-width=".9" opacity=".75"></line><rect x="31.5" y="105.1" width="2.5" height="4.7" fill="#17a866" stroke="#17a866" stroke-width=".9"></rect><line x1="37.3" y1="94.2" x2="37.3" y2="106.5" stroke="#17a866" stroke-width=".9" opacity=".75"></line><rect x="36.0" y="99.1" width="2.5" height="6.0" fill="#17a866" stroke="#17a866" stroke-width=".9"></rect><line x1="41.8" y1="94.9" x2="41.8" y2="106.7" stroke="#e05252" stroke-width=".9" opacity=".75"></line><rect x="40.5" y="99.1" width="2.5" height="2.9" fill="#0c1a24" stroke="#e05252" stroke-width=".9"></rect><line x1="46.3" y1="95.4" x2="46.3" y2="104.1" stroke="#17a866" stroke-width=".9" opacity=".75"></line><rect x="45.0" y="97.4" width="2.5" height="4.6" fill="#17a866" stroke="#17a866" stroke-width=".9"></rect><line x1="50.8" y1="89.8" x2="50.8" y2="98.0" stroke="#17a866" stroke-width=".9" opacity=".75"></line><rect x="49.5" y="92.8" width="2.5" height="4.6" fill="#17a866" stroke="#17a866" stroke-width=".9"></rect><line x1="55.3" y1="87.8" x2="55.3" y2="93.5" stroke="#17a866" stroke-width=".9" opacity=".75"></line><rect x="54.0" y="89.8" width="2.5" height="3.0" fill="#17a866" stroke="#17a866" stroke-width=".9"></rect><line x1="59.8" y1="83.0" x2="59.8" y2="95.0" stroke="#17a866" stroke-width=".9" opacity=".75"></line><rect x="58.5" y="84.1" width="2.5" height="5.7" fill="#17a866" stroke="#17a866" stroke-width=".9"></rect><line x1="64.3" y1="76.6" x2="64.3" y2="87.7" stroke="#17a866" stroke-width=".9" opacity=".75"></line><rect x="63.0" y="77.3" width="2.5" height="6.8" fill="#17a866" stroke="#17a866" stroke-width=".9"></rect><line x1="68.8" y1="71.9" x2="68.8" y2="79.3" stroke="#e05252" stroke-width=".9" opacity=".75"></line><rect x="67.5" y="77.3" width="2.5" height="1.5" fill="#0c1a24" stroke="#e05252" stroke-width=".9"></rect><line x1="73.3" y1="72.4" x2="73.3" y2="84.5" stroke="#17a866" stroke-width=".9" opacity=".75"></line><rect x="72.0" y="74.4" width="2.5" height="4.4" fill="#17a866" stroke="#17a866" stroke-width=".9"></rect><line x1="77.8" y1="63.4" x2="77.8" y2="74.5" stroke="#17a866" stroke-width=".9" opacity=".75"></line><rect x="76.5" y="66.3" width="2.5" height="8.0" fill="#17a866" stroke="#17a866" stroke-width=".9"></rect><line x1="82.3" y1="65.4" x2="82.3" y2="70.5" stroke="#17a866" stroke-width=".9" opacity=".75"></line><rect x="81.0" y="65.5" width="2.5" height="1.0" fill="#17a866" stroke="#17a866" stroke-width=".9"></rect><line x1="86.8" y1="58.1" x2="86.8" y2="68.7" stroke="#17a866" stroke-width=".9" opacity=".75"></line><rect x="85.5" y="63.9" width="2.5" height="1.6" fill="#17a866" stroke="#17a866" stroke-width=".9"></rect><line x1="91.3" y1="56.6" x2="91.3" y2="65.2" stroke="#17a866" stroke-width=".9" opacity=".75"></line><rect x="90.0" y="59.4" width="2.5" height="4.5" fill="#17a866" stroke="#17a866" stroke-width=".9"></rect><line x1="95.8" y1="52.2" x2="95.8" y2="60.9" stroke="#17a866" stroke-width=".9" opacity=".75"></line><rect x="94.5" y="56.3" width="2.5" height="3.1" fill="#17a866" stroke="#17a866" stroke-width=".9"></rect><line x1="100.3" y1="46.1" x2="100.3" y2="59.6" stroke="#17a866" stroke-width=".9" opacity=".75"></line><rect x="99.0" y="51.9" width="2.5" height="4.4" fill="#17a866" stroke="#17a866" stroke-width=".9"></rect><line x1="104.8" y1="40.6" x2="104.8" y2="52.1" stroke="#17a866" stroke-width=".9" opacity=".75"></line><rect x="103.5" y="45.3" width="2.5" height="6.7" fill="#17a866" stroke="#17a866" stroke-width=".9"></rect><line x1="109.3" y1="40.7" x2="109.3" y2="49.6" stroke="#17a866" stroke-width=".9" opacity=".75"></line><rect x="108.0" y="45.3" width="2.5" height="1.0" fill="#17a866" stroke="#17a866" stroke-width=".9"></rect><line x1="113.8" y1="43.4" x2="113.8" y2="50.7" stroke="#17a866" stroke-width=".9" opacity=".75"></line><rect x="112.5" y="45.2" width="2.5" height="1.0" fill="#17a866" stroke="#17a866" stroke-width=".9"></rect><line x1="118.3" y1="37.1" x2="118.3" y2="45.2" stroke="#17a866" stroke-width=".9" opacity=".75"></line><rect x="117.0" y="38.8" width="2.5" height="6.4" fill="#17a866" stroke="#17a866" stroke-width=".9"></rect><line x1="122.8" y1="29.3" x2="122.8" y2="41.1" stroke="#17a866" stroke-width=".9" opacity=".75"></line><rect x="121.5" y="30.8" width="2.5" height="8.1" fill="#17a866" stroke="#17a866" stroke-width=".9"></rect><line x1="127.3" y1="27.7" x2="127.3" y2="34.1" stroke="#e05252" stroke-width=".9" opacity=".75"></line><rect x="126.0" y="30.8" width="2.5" height="1.7" fill="#0c1a24" stroke="#e05252" stroke-width=".9"></rect><line x1="131.8" y1="21.6" x2="131.8" y2="36.1" stroke="#17a866" stroke-width=".9" opacity=".75"></line><rect x="130.5" y="25.0" width="2.5" height="7.5" fill="#17a866" stroke="#17a866" stroke-width=".9"></rect><line x1="136.3" y1="22.3" x2="136.3" y2="26.0" stroke="#e05252" stroke-width=".9" opacity=".75"></line><rect x="135.0" y="25.0" width="2.5" height="1.0" fill="#0c1a24" stroke="#e05252" stroke-width=".9"></rect><line x1="140.8" y1="17.7" x2="140.8" y2="29.3" stroke="#17a866" stroke-width=".9" opacity=".75"></line><rect x="139.5" y="19.0" width="2.5" height="6.4" fill="#17a866" stroke="#17a866" stroke-width=".9"></rect><line x1="145.3" y1="12.9" x2="145.3" y2="23.5" stroke="#17a866" stroke-width=".9" opacity=".75"></line><rect x="144.0" y="13.0" width="2.5" height="6.0" fill="#17a866" stroke="#17a866" stroke-width=".9"></rect><line x1="149.8" y1="11.5" x2="149.8" y2="22.2" stroke="#e05252" stroke-width=".9" opacity=".75"></line><rect x="148.5" y="13.0" width="2.5" height="7.4" fill="#0c1a24" stroke="#e05252" stroke-width=".9"></rect><line x1="154.3" y1="17.5" x2="154.3" y2="21.8" stroke="#17a866" stroke-width=".9" opacity=".75"></line><rect x="153.0" y="19.7" width="2.5" height="1.0" fill="#17a866" stroke="#17a866" stroke-width=".9"></rect><line x1="158.8" y1="19.2" x2="158.8" y2="31.0" stroke="#e05252" stroke-width=".9" opacity=".75"></line><rect x="157.5" y="19.7" width="2.5" height="6.0" fill="#0c1a24" stroke="#e05252" stroke-width=".9"></rect><line x1="163.3" y1="23.0" x2="163.3" y2="28.6" stroke="#17a866" stroke-width=".9" opacity=".75"></line><rect x="162.0" y="24.8" width="2.5" height="1.0" fill="#17a866" stroke="#17a866" stroke-width=".9"></rect><line x1="167.8" y1="20.9" x2="167.8" y2="36.3" stroke="#e05252" stroke-width=".9" opacity=".75"></line><rect x="166.5" y="24.8" width="2.5" height="8.9" fill="#0c1a24" stroke="#e05252" stroke-width=".9"></rect><line x1="172.3" y1="28.9" x2="172.3" y2="36.3" stroke="#e05252" stroke-width=".9" opacity=".75"></line><rect x="171.0" y="33.7" width="2.5" height="1.0" fill="#0c1a24" stroke="#e05252" stroke-width=".9"></rect><line x1="176.8" y1="28.3" x2="176.8" y2="37.9" stroke="#17a866" stroke-width=".9" opacity=".75"></line><rect x="175.5" y="33.4" width="2.5" height="1.0" fill="#17a866" stroke="#17a866" stroke-width=".9"></rect><line x1="181.3" y1="32.5" x2="181.3" y2="37.3" stroke="#e05252" stroke-width=".9" opacity=".75"></line><rect x="180.0" y="33.4" width="2.5" height="3.3" fill="#0c1a24" stroke="#e05252" stroke-width=".9"></rect><line x1="185.8" y1="35.5" x2="185.8" y2="44.2" stroke="#e05252" stroke-width=".9" opacity=".75"></line><rect x="184.5" y="36.7" width="2.5" height="7.4" fill="#0c1a24" stroke="#e05252" stroke-width=".9"></rect><line x1="190.3" y1="41.2" x2="190.3" y2="49.3" stroke="#e05252" stroke-width=".9" opacity=".75"></line><rect x="189.0" y="44.1" width="2.5" height="1.0" fill="#0c1a24" stroke="#e05252" stroke-width=".9"></rect><line x1="194.8" y1="43.1" x2="194.8" y2="49.7" stroke="#e05252" stroke-width=".9" opacity=".75"></line><rect x="193.5" y="45.1" width="2.5" height="2.8" fill="#0c1a24" stroke="#e05252" stroke-width=".9"></rect><line x1="199.3" y1="47.8" x2="199.3" y2="58.0" stroke="#e05252" stroke-width=".9" opacity=".75"></line><rect x="198.0" y="47.9" width="2.5" height="7.6" fill="#0c1a24" stroke="#e05252" stroke-width=".9"></rect><line x1="203.8" y1="46.1" x2="203.8" y2="56.1" stroke="#17a866" stroke-width=".9" opacity=".75"></line><rect x="202.5" y="51.5" width="2.5" height="4.0" fill="#17a866" stroke="#17a866" stroke-width=".9"></rect><line x1="208.3" y1="50.1" x2="208.3" y2="60.8" stroke="#e05252" stroke-width=".9" opacity=".75"></line><rect x="207.0" y="51.5" width="2.5" height="9.2" fill="#0c1a24" stroke="#e05252" stroke-width=".9"></rect><line x1="212.8" y1="52.1" x2="212.8" y2="66.4" stroke="#17a866" stroke-width=".9" opacity=".75"></line><rect x="211.5" y="57.5" width="2.5" height="3.2" fill="#17a866" stroke="#17a866" stroke-width=".9"></rect><line x1="217.3" y1="52.8" x2="217.3" y2="66.8" stroke="#e05252" stroke-width=".9" opacity=".75"></line><rect x="216.0" y="57.5" width="2.5" height="4.3" fill="#0c1a24" stroke="#e05252" stroke-width=".9"></rect><line x1="221.8" y1="58.6" x2="221.8" y2="74.6" stroke="#e05252" stroke-width=".9" opacity=".75"></line><rect x="220.5" y="61.8" width="2.5" height="8.6" fill="#0c1a24" stroke="#e05252" stroke-width=".9"></rect><line x1="226.3" y1="59.7" x2="226.3" y2="73.2" stroke="#17a866" stroke-width=".9" opacity=".75"></line><rect x="225.0" y="65.5" width="2.5" height="4.9" fill="#17a866" stroke="#17a866" stroke-width=".9"></rect><line x1="230.8" y1="64.9" x2="230.8" y2="76.2" stroke="#e05252" stroke-width=".9" opacity=".75"></line><rect x="229.5" y="65.5" width="2.5" height="9.9" fill="#0c1a24" stroke="#e05252" stroke-width=".9"></rect><line x1="235.3" y1="73.9" x2="235.3" y2="80.7" stroke="#17a866" stroke-width=".9" opacity=".75"></line><rect x="234.0" y="75.0" width="2.5" height="1.0" fill="#17a866" stroke="#17a866" stroke-width=".9"></rect><line x1="239.8" y1="71.3" x2="239.8" y2="79.7" stroke="#e05252" stroke-width=".9" opacity=".75"></line><rect x="238.5" y="75.0" width="2.5" height="4.4" fill="#0c1a24" stroke="#e05252" stroke-width=".9"></rect><line x1="244.3" y1="72.4" x2="244.3" y2="80.9" stroke="#17a866" stroke-width=".9" opacity=".75"></line><rect x="243.0" y="73.1" width="2.5" height="6.3" fill="#17a866" stroke="#17a866" stroke-width=".9"></rect><line x1="248.8" y1="63.0" x2="248.8" y2="75.6" stroke="#17a866" stroke-width=".9" opacity=".75"></line><rect x="247.5" y="68.1" width="2.5" height="4.9" fill="#17a866" stroke="#17a866" stroke-width=".9"></rect><line x1="253.3" y1="64.7" x2="253.3" y2="70.1" stroke="#e05252" stroke-width=".9" opacity=".75"></line><rect x="252.0" y="68.1" width="2.5" height="1.0" fill="#0c1a24" stroke="#e05252" stroke-width=".9"></rect><line x1="257.8" y1="59.4" x2="257.8" y2="73.3" stroke="#17a866" stroke-width=".9" opacity=".75"></line><rect x="256.5" y="63.7" width="2.5" height="4.5" fill="#17a866" stroke="#17a866" stroke-width=".9"></rect><line x1="262.3" y1="60.9" x2="262.3" y2="65.1" stroke="#17a866" stroke-width=".9" opacity=".75"></line><rect x="261.0" y="61.4" width="2.5" height="2.3" fill="#17a866" stroke="#17a866" stroke-width=".9"></rect><line x1="266.8" y1="55.9" x2="266.8" y2="63.1" stroke="#17a866" stroke-width=".9" opacity=".75"></line><rect x="265.5" y="57.9" width="2.5" height="3.5" fill="#17a866" stroke="#17a866" stroke-width=".9"></rect><line x1="271.3" y1="52.3" x2="271.3" y2="59.1" stroke="#17a866" stroke-width=".9" opacity=".75"></line><rect x="270.0" y="57.6" width="2.5" height="1.0" fill="#17a866" stroke="#17a866" stroke-width=".9"></rect><line x1="275.8" y1="45.9" x2="275.8" y2="62.9" stroke="#17a866" stroke-width=".9" opacity=".75"></line><rect x="274.5" y="51.3" width="2.5" height="6.4" fill="#17a866" stroke="#17a866" stroke-width=".9"></rect><line x1="280.3" y1="46.2" x2="280.3" y2="54.5" stroke="#e05252" stroke-width=".9" opacity=".75"></line><rect x="279.0" y="51.3" width="2.5" height="1.0" fill="#0c1a24" stroke="#e05252" stroke-width=".9"></rect><line x1="284.8" y1="46.5" x2="284.8" y2="52.5" stroke="#17a866" stroke-width=".9" opacity=".75"></line><rect x="283.5" y="47.6" width="2.5" height="4.5" fill="#17a866" stroke="#17a866" stroke-width=".9"></rect><line x1="289.3" y1="40.7" x2="289.3" y2="49.9" stroke="#17a866" stroke-width=".9" opacity=".75"></line><rect x="288.0" y="45.9" width="2.5" height="1.7" fill="#17a866" stroke="#17a866" stroke-width=".9"></rect><line x1="293.8" y1="39.7" x2="293.8" y2="50.7" stroke="#17a866" stroke-width=".9" opacity=".75"></line><rect x="292.5" y="39.7" width="2.5" height="6.1" fill="#17a866" stroke="#17a866" stroke-width=".9"></rect><line x1="298.3" y1="36.5" x2="298.3" y2="41.4" stroke="#17a866" stroke-width=".9" opacity=".75"></line><rect x="297.0" y="37.2" width="2.5" height="2.5" fill="#17a866" stroke="#17a866" stroke-width=".9"></rect><line x1="302.8" y1="34.9" x2="302.8" y2="47.0" stroke="#e05252" stroke-width=".9" opacity=".75"></line><rect x="301.5" y="37.2" width="2.5" height="4.1" fill="#0c1a24" stroke="#e05252" stroke-width=".9"></rect><line x1="307.3" y1="35.0" x2="307.3" y2="47.2" stroke="#17a866" stroke-width=".9" opacity=".75"></line><rect x="306.0" y="35.5" width="2.5" height="5.9" fill="#17a866" stroke="#17a866" stroke-width=".9"></rect><line x1="311.8" y1="30.8" x2="311.8" y2="37.0" stroke="#17a866" stroke-width=".9" opacity=".75"></line><rect x="310.5" y="31.2" width="2.5" height="4.3" fill="#17a866" stroke="#17a866" stroke-width=".9"></rect><line x1="316.3" y1="25.7" x2="316.3" y2="35.5" stroke="#e05252" stroke-width=".9" opacity=".75"></line><rect x="315.0" y="31.2" width="2.5" height="2.2" fill="#0c1a24" stroke="#e05252" stroke-width=".9"></rect><line x1="320.8" y1="26.1" x2="320.8" y2="36.2" stroke="#17a866" stroke-width=".9" opacity=".75"></line><rect x="319.5" y="27.9" width="2.5" height="5.5" fill="#17a866" stroke="#17a866" stroke-width=".9"></rect><line x1="325.3" y1="23.4" x2="325.3" y2="28.3" stroke="#17a866" stroke-width=".9" opacity=".75"></line><rect x="324.0" y="26.6" width="2.5" height="1.3" fill="#17a866" stroke="#17a866" stroke-width=".9"></rect><line x1="329.8" y1="20.3" x2="329.8" y2="30.3" stroke="#17a866" stroke-width=".9" opacity=".75"></line><rect x="328.5" y="22.4" width="2.5" height="4.2" fill="#17a866" stroke="#17a866" stroke-width=".9"></rect><polyline points="10.3,126.5 14.8,126.3 19.3,125.8 23.8,124.8 28.3,123.7 32.8,122.3 37.3,120.6 41.8,119.2 46.3,117.6 50.8,115.8 55.3,113.9 59.8,111.7 64.3,109.1 68.8,106.9 73.3,104.5 77.8,101.6 82.3,99.0 86.8,96.4 91.3,93.6 95.8,90.9 100.3,88.0 104.8,84.8 109.3,81.9 113.8,79.2 118.3,76.2 122.8,72.8 127.3,69.8 131.8,66.5 136.3,63.5 140.8,60.2 145.3,56.7 149.8,54.0 154.3,51.4 158.8,49.5 163.3,47.7 167.8,46.7 172.3,45.8 176.8,44.8 181.3,44.2 185.8,44.2 190.3,44.3 194.8,44.6 199.3,45.4 203.8,45.8 208.3,46.9 212.8,47.7 217.3,48.8 221.8,50.4 226.3,51.5 230.8,53.3 235.3,54.9 239.8,56.7 244.3,57.9 248.8,58.7 253.3,59.4 257.8,59.7 262.3,59.8 266.8,59.7 271.3,59.5 275.8,58.9 280.3,58.4 284.8,57.6 289.3,56.7 293.8,55.5 298.3,54.1 302.8,53.2 307.3,51.9 311.8,50.3 316.3,49.1 320.8,47.5 325.3,46.0 329.8,44.2" fill="none" stroke="#8aa5b4" stroke-width="1.6"></polyline><polyline points="10.3,126.5 14.8,126.2 19.3,125.1 23.8,123.2 28.3,121.1 32.8,118.7 37.3,115.7 41.8,113.6 46.3,111.1 50.8,108.3 55.3,105.4 59.8,102.1 64.3,98.3 68.8,95.3 73.3,92.1 77.8,88.1 82.3,84.6 86.8,81.5 91.3,78.1 95.8,74.7 100.3,71.2 104.8,67.2 109.3,63.8 113.8,61.0 118.3,57.6 122.8,53.4 127.3,50.2 131.8,46.3 136.3,43.1 140.8,39.4 145.3,35.3 149.8,33.0 154.3,31.0 158.8,30.2 163.3,29.3 167.8,30.0 172.3,30.7 176.8,31.1 181.3,32.0 185.8,33.8 190.3,35.6 194.8,37.5 199.3,40.3 203.8,42.0 208.3,44.9 212.8,46.8 217.3,49.1 221.8,52.4 226.3,54.4 230.8,57.7 235.3,60.3 239.8,63.3 244.3,64.8 248.8,65.3 253.3,65.7 257.8,65.4 262.3,64.8 266.8,63.7 271.3,62.8 275.8,61.0 280.3,59.7 284.8,57.8 289.3,56.0 293.8,53.5 298.3,51.0 302.8,49.5 307.3,47.3 311.8,44.8 316.3,43.1 320.8,40.7 325.3,38.6 329.8,36.1" fill="none" stroke="#30AFFF" stroke-width="1.6"></polyline><polygon points="285.3,60.9 293.3,60.9 289.3,53.9" fill="#17a866"></polygon><line x1="289.3" y1="60.9" x2="289.3" y2="134.0" stroke="#17a866" stroke-width="1" stroke-dasharray="2 3"></line><rect x="8.00" y="140" width="4.90" height="8" fill="#33505f"></rect><rect x="12.50" y="140" width="4.90" height="8" fill="#17a866"></rect><rect x="17.00" y="140" width="4.90" height="8" fill="#17a866"></rect><rect x="21.50" y="140" width="4.90" height="8" fill="#17a866"></rect><rect x="26.00" y="140" width="4.90" height="8" fill="#17a866"></rect><rect x="30.50" y="140" width="4.90" height="8" fill="#17a866"></rect><rect x="35.00" y="140" width="4.90" height="8" fill="#17a866"></rect><rect x="39.50" y="140" width="4.90" height="8" fill="#17a866"></rect><rect x="44.00" y="140" width="4.90" height="8" fill="#17a866"></rect><rect x="48.50" y="140" width="4.90" height="8" fill="#17a866"></rect><rect x="53.00" y="140" width="4.90" height="8" fill="#17a866"></rect><rect x="57.50" y="140" width="4.90" height="8" fill="#17a866"></rect><rect x="62.00" y="140" width="4.90" height="8" fill="#17a866"></rect><rect x="66.50" y="140" width="4.90" height="8" fill="#17a866"></rect><rect x="71.00" y="140" width="4.90" height="8" fill="#17a866"></rect><rect x="75.50" y="140" width="4.90" height="8" fill="#17a866"></rect><rect x="80.00" y="140" width="4.90" height="8" fill="#17a866"></rect><rect x="84.50" y="140" width="4.90" height="8" fill="#17a866"></rect><rect x="89.00" y="140" width="4.90" height="8" fill="#17a866"></rect><rect x="93.50" y="140" width="4.90" height="8" fill="#17a866"></rect><rect x="98.00" y="140" width="4.90" height="8" fill="#17a866"></rect><rect x="102.50" y="140" width="4.90" height="8" fill="#17a866"></rect><rect x="107.00" y="140" width="4.90" height="8" fill="#17a866"></rect><rect x="111.50" y="140" width="4.90" height="8" fill="#17a866"></rect><rect x="116.00" y="140" width="4.90" height="8" fill="#17a866"></rect><rect x="120.50" y="140" width="4.90" height="8" fill="#17a866"></rect><rect x="125.00" y="140" width="4.90" height="8" fill="#17a866"></rect><rect x="129.50" y="140" width="4.90" height="8" fill="#17a866"></rect><rect x="134.00" y="140" width="4.90" height="8" fill="#17a866"></rect><rect x="138.50" y="140" width="4.90" height="8" fill="#17a866"></rect><rect x="143.00" y="140" width="4.90" height="8" fill="#17a866"></rect><rect x="147.50" y="140" width="4.90" height="8" fill="#17a866"></rect><rect x="152.00" y="140" width="4.90" height="8" fill="#17a866"></rect><rect x="156.50" y="140" width="4.90" height="8" fill="#17a866"></rect><rect x="161.00" y="140" width="4.90" height="8" fill="#17a866"></rect><rect x="165.50" y="140" width="4.90" height="8" fill="#dfbb2a"></rect><rect x="170.00" y="140" width="4.90" height="8" fill="#dfbb2a"></rect><rect x="174.50" y="140" width="4.90" height="8" fill="#dfbb2a"></rect><rect x="179.00" y="140" width="4.90" height="8" fill="#dfbb2a"></rect><rect x="183.50" y="140" width="4.90" height="8" fill="#dfbb2a"></rect><rect x="188.00" y="140" width="4.90" height="8" fill="#ef8b3c"></rect><rect x="192.50" y="140" width="4.90" height="8" fill="#ef8b3c"></rect><rect x="197.00" y="140" width="4.90" height="8" fill="#ef8b3c"></rect><rect x="201.50" y="140" width="4.90" height="8" fill="#ef8b3c"></rect><rect x="206.00" y="140" width="4.90" height="8" fill="#ef8b3c"></rect><rect x="210.50" y="140" width="4.90" height="8" fill="#ef8b3c"></rect><rect x="215.00" y="140" width="4.90" height="8" fill="#e05252"></rect><rect x="219.50" y="140" width="4.90" height="8" fill="#e05252"></rect><rect x="224.00" y="140" width="4.90" height="8" fill="#e05252"></rect><rect x="228.50" y="140" width="4.90" height="8" fill="#e05252"></rect><rect x="233.00" y="140" width="4.90" height="8" fill="#e05252"></rect><rect x="237.50" y="140" width="4.90" height="8" fill="#e05252"></rect><rect x="242.00" y="140" width="4.90" height="8" fill="#e05252"></rect><rect x="246.50" y="140" width="4.90" height="8" fill="#e05252"></rect><rect x="251.00" y="140" width="4.90" height="8" fill="#e05252"></rect><rect x="255.50" y="140" width="4.90" height="8" fill="#92c8f2"></rect><rect x="260.00" y="140" width="4.90" height="8" fill="#92c8f2"></rect><rect x="264.50" y="140" width="4.90" height="8" fill="#2f7fe0"></rect><rect x="269.00" y="140" width="4.90" height="8" fill="#2f7fe0"></rect><rect x="273.50" y="140" width="4.90" height="8" fill="#2f7fe0"></rect><rect x="278.00" y="140" width="4.90" height="8" fill="#2f7fe0"></rect><rect x="282.50" y="140" width="4.90" height="8" fill="#2f7fe0"></rect><rect x="287.00" y="140" width="4.90" height="8" fill="#17a866"></rect><rect x="291.50" y="140" width="4.90" height="8" fill="#17a866"></rect><rect x="296.00" y="140" width="4.90" height="8" fill="#17a866"></rect><rect x="300.50" y="140" width="4.90" height="8" fill="#17a866"></rect><rect x="305.00" y="140" width="4.90" height="8" fill="#17a866"></rect><rect x="309.50" y="140" width="4.90" height="8" fill="#17a866"></rect><rect x="314.00" y="140" width="4.90" height="8" fill="#17a866"></rect><rect x="318.50" y="140" width="4.90" height="8" fill="#17a866"></rect><rect x="323.00" y="140" width="4.90" height="8" fill="#17a866"></rect><rect x="327.50" y="140" width="4.90" height="8" fill="#17a866"></rect></svg>